<svg width="143" height="40" viewBox="0 0 143 40" fill="none" xmlns="http://www.w3.org/2000/svg">
<path d="M0.96 29.0089C1.44 27.2003 1.88286 25.6503 1.88286 22.5803V18.4503C1.88286 15.7546 1.32857 14.2046 0 12.616V12.4732L7.79 10.3303V22.5875C7.79 25.616 8.08572 27.2403 8.67714 29.016V29.0903H0.962857L0.96 29.0089ZM4.28571 8.11175C3.45042 8.09408 2.6553 7.74986 2.0708 7.15287C1.48631 6.55589 1.15898 5.75366 1.15898 4.91818C1.15898 4.0827 1.48631 3.28048 2.0708 2.68349C2.6553 2.0865 3.45042 1.74228 4.28571 1.72461C6.05857 1.72461 7.53429 3.16461 7.53429 4.90032C7.52525 5.75568 7.17892 6.57289 6.57059 7.17426C5.96226 7.77564 5.14112 8.11255 4.28571 8.11175Z" fill="#2F2C26"/>
<path d="M29.7283 32.5172C31.7283 32.7015 35.2297 32.7386 36.7811 30.1172L31.3897 16.7143C29.9126 13.1701 29.3968 12.0986 28.584 11.1758V11.1029H37.6297V11.1758C36.9654 12.0329 36.6697 14.4615 37.6668 16.9358L39.8826 22.6958L42.3183 16.8572C43.3897 14.2001 42.6883 12.0215 41.9497 11.1715V11.0986H46.6754V11.1715C45.4197 12.5386 44.4968 13.7201 43.2468 16.7429L38.2611 28.6686C35.3083 35.6472 33.1297 36.4215 29.7326 37.3829L29.7283 32.5172Z" fill="#2F2C26"/>
<path d="M44.501 20.1117C44.501 14.9789 49.0053 10.5117 54.4324 10.5117C59.8595 10.5117 64.3638 14.9789 64.3638 20.1117C64.3638 25.2446 59.8567 29.6374 54.4281 29.6374C48.9995 29.6374 44.501 25.2431 44.501 20.1117ZM58.2353 20.1117C58.2353 14.8689 57.0538 11.2131 54.4324 11.2131C51.7738 11.2131 50.6295 14.8689 50.6295 20.1117C50.6295 25.3174 51.811 28.936 54.4324 28.936C57.0538 28.936 58.2353 25.3174 58.2353 20.1117Z" fill="#2F2C26"/>
<path d="M65.2931 16.7149C64.0374 13.5035 63.336 12.2478 62.376 11.1764V11.1035H71.5717V11.1764C70.906 12.0335 70.6845 14.3892 71.5717 16.6778L73.8231 22.5492L76.1431 17.0107C77.3245 14.2407 76.5131 11.9521 75.9217 11.1764V11.1035H80.5374V11.1764C79.2817 12.5435 78.3945 13.6878 77.1088 16.7478L71.8231 29.3378H70.3874L65.2931 16.7149Z" fill="#2F2C26"/>
<path d="M88.0953 26.7574C87.061 28.2717 85.2882 29.6374 82.9253 29.6374C80.6739 29.6374 78.7539 28.4946 78.7539 25.9446C78.7539 21.9574 83.811 20.2217 87.9839 19.336V17.0503C87.9839 14.8717 87.0982 13.8746 84.4396 13.8746C82.7895 13.8896 81.1585 14.2294 79.6396 14.8746L79.4968 14.616C81.2639 12.4289 84.1425 10.5117 88.1682 10.5117C92.1553 10.5117 93.9282 12.4317 93.9282 15.3489V24.8374C93.9282 25.7231 94.3339 26.4989 95.5168 26.4989C96.0183 26.4957 96.5072 26.3414 96.9196 26.056L96.9925 26.1989C96.4753 27.4174 95.1839 29.596 92.0453 29.596C89.7925 29.6003 88.4282 28.4189 88.0953 26.7574ZM87.9839 26.056V20.1117C85.3625 20.8131 83.9596 22.2903 83.9596 24.0246C83.9596 25.4646 84.8082 26.4246 86.4339 26.4246C86.9743 26.4431 87.5097 26.3158 87.9839 26.056Z" fill="#2F2C26"/>
<path d="M31.7017 26.0557C31.2894 26.3413 30.8004 26.4956 30.2989 26.4986C29.1174 26.4986 28.7117 25.7229 28.7117 24.8372V15.6443C28.7117 12.5014 26.426 10.5114 23.1731 10.5114C19.8874 10.5114 17.9674 12.4686 16.9703 14.0557L16.8274 14.0186V10.3271L9.18457 12.47V12.5443C10.5131 14.1314 11.0303 15.6457 11.0303 18.4143L11.0674 22.5857C11.0674 25.6872 10.7346 27.2386 10.1446 29.0143V29.0886H17.8589V29.0143C17.2689 27.2057 16.9731 25.6557 16.9731 22.5857V15.09C17.6717 14.0929 18.8574 13.2857 20.2189 13.2857C21.9917 13.2857 22.7674 14.4286 22.7674 16.0172V25.54C22.7747 25.9493 22.8114 26.3575 22.8774 26.7614C23.2103 28.4229 24.576 29.6043 26.8289 29.6043C29.9717 29.6043 31.2574 27.4257 31.776 26.2072L31.7017 26.0557Z" fill="#2F2C26"/>
<path d="M122.874 19.9746V0.0302734H102.89C102.89 11.0488 111.837 20.0003 122.857 20.0003H102.889V39.9703C113.919 39.9703 122.873 31.0217 122.873 20.0003H142.857V0.0302734C131.836 0.0302734 122.887 8.96456 122.874 19.9746Z" fill="#EE3C15"/>
</svg>
